<svg xmlns="http://www.w3.org/2000/svg" viewBox="0 0 750 471">
  <path fill="#1A1F71" d="M0 0h750v471H0z"></path>
  <path fill="#fff" d="M278 329l-30-187h47l30 187h-47zM510 150c-9-3-23-6-41-6-46 0-79 23-79 55 0 24 23 37 41 45 18 9 24 14 24 21 0 11-15 16-29 16-19 0-30-3-46-9l-6-2-7 42c12 5 34 9 57 9 54 0 89-23 89-58 0-19-13-34-38-46-16-8-27-13-27-21 0-7 9-14 28-14 16 0 27 3 35 6l4 1 6-39zM579 329l47-187h-44l-47 187h44zM227 142l-73 187h-47l-36-147c-2-7-3-10-8-13-8-5-21-10-33-13l2-14h82c7 0 14 6 16 13l20 105 50-118h27zM701 329l-22-187h-38c-8 0-15 5-18 13l-82 174h57l11-28h69l6 28h49zm-79-65l27-67 15 67h-42z"></path>
</svg>
